<svg id="visual" viewBox="0 0 900 600" width="900" height="600" xmlns="http://www.w3.org/2000/svg" xmlns:xlink="http://www.w3.org/1999/xlink" version="1.1"><rect x="0" y="0" width="900" height="600" fill="#CCCCCC"></rect><defs><linearGradient id="grad1_0" x1="33.3%" y1="100%" x2="100%" y2="0%"><stop offset="20%" stop-color="#cccccc" stop-opacity="1"></stop><stop offset="80%" stop-color="#cccccc" stop-opacity="1"></stop></linearGradient></defs><defs><linearGradient id="grad2_0" x1="0%" y1="100%" x2="66.7%" y2="0%"><stop offset="20%" stop-color="#cccccc" stop-opacity="1"></stop><stop offset="80%" stop-color="#cccccc" stop-opacity="1"></stop></linearGradient></defs><g transform="translate(900, 600)"><path d="M-486.7 0C-488.9 -73.1 -491 -146.1 -449.7 -186.3C-408.4 -226.4 -323.6 -233.6 -277.2 -277.2C-230.8 -320.7 -222.7 -400.6 -182.9 -441.6C-143.1 -482.6 -71.6 -484.7 0 -486.7L0 0Z" fill="#6600FF"></path></g><g transform="translate(0, 0)"><path d="M486.7 0C479 67.6 471.2 135.2 436.1 180.6C400.9 226 338.4 249.3 296.3 296.3C254.1 343.3 232.3 414 186.3 449.7C140.3 485.4 70.1 486.1 0 486.7L0 0Z" fill="#6600FF"></path></g></svg>